HIERARCHY
ROOT Hips
{
	OFFSET 0.000000 0.000000 0.000000
	CHANNELS 6 Xposition Yposition Zposition Xrotation Yrotation Zrotation
	JOINT LeftUpLeg_virtual
	{
		OFFSET 0.000000 0.000000 0.000000
		CHANNELS 3 Xrotation Yrotation Zrotation
		JOINT LeftUpLeg
		{
			OFFSET 13.026900 -6.336304 -1.092800
			CHANNELS 3 Xrotation Yrotation Zrotation
			JOINT LeftLeg
			{
				OFFSET 0.524474 -46.096886 9.782700
				CHANNELS 3 Xrotation Yrotation Zrotation
				JOINT LeftFoot
				{
					OFFSET -0.524474 -53.427422 -12.948200
					CHANNELS 3 Xrotation Yrotation Zrotation
					JOINT LeftToeBase
					{
						OFFSET 0.192200 -14.009700 16.364100
						CHANNELS 3 Xrotation Yrotation Zrotation
						JOINT LeftToe_End
						{
							OFFSET -1.784700 -0.561700 9.474800
							CHANNELS 3 Xrotation Yrotation Zrotation
							End Site
							{
								OFFSET 0 0 0
							}
						}
					}
				}
			}
		}
	}
	JOINT RightUpLeg_virtual
	{
		OFFSET 0.000000 0.000000 0.000000
		CHANNELS 3 Xrotation Yrotation Zrotation
		JOINT RightUpLeg
		{
			OFFSET -12.883000 -6.336304 -1.092800
			CHANNELS 3 Xrotation Yrotation Zrotation
			JOINT RightLeg
			{
				OFFSET -0.524587 -46.096825 9.782800
				CHANNELS 3 Xrotation Yrotation Zrotation
				JOINT RightFoot
				{
					OFFSET 0.524587 -53.427383 -12.948300
					CHANNELS 3 Xrotation Yrotation Zrotation
					JOINT RightToeBase
					{
						OFFSET -0.192200 -14.009700 16.364100
						CHANNELS 3 Xrotation Yrotation Zrotation
						JOINT RightToe_End
						{
							OFFSET 1.784700 -0.561700 9.474800
							CHANNELS 3 Xrotation Yrotation Zrotation
							End Site
							{
								OFFSET 0 0 0
							}
						}
					}
				}
			}
		}
	}
	JOINT Spine_virtual
	{
		OFFSET 0.000000 0.000000 0.000000
		CHANNELS 3 Xrotation Yrotation Zrotation
		JOINT Spine
		{
			OFFSET 0.072000 7.257294 -0.789700
			CHANNELS 3 Xrotation Yrotation Zrotation
			JOINT Spine1
			{
				OFFSET 0.000000 12.508769 -0.658067
				CHANNELS 3 Xrotation Yrotation Zrotation
				JOINT Spine1_split
				{
					OFFSET 0.000000 12.508769 -0.658067
					CHANNELS 3 Xrotation Yrotation Zrotation
					JOINT Spine2
					{
						OFFSET 0.000000 12.508769 -0.658067
						CHANNELS 3 Xrotation Yrotation Zrotation
						JOINT Neck_virtual
						{
							OFFSET 0.000000 0.000000 0.000000
							CHANNELS 3 Xrotation Yrotation Zrotation
							JOINT Neck
							{
								OFFSET 0.000000 14.033295 7.520400
								CHANNELS 3 Xrotation Yrotation Zrotation
								JOINT Head
								{
									OFFSET 0.000000 8.198502 5.703100
									CHANNELS 3 Xrotation Yrotation Zrotation
									JOINT HeadTop_End
									{
										OFFSET 0.000000 17.760803 13.332701
										CHANNELS 3 Xrotation Yrotation Zrotation
										End Site
										{
											OFFSET 0 0 0
										}
									}
								}
							}
						}
						JOINT LeftShoulder_virtual
						{
							OFFSET 0.000000 0.000000 0.000000
							CHANNELS 3 Xrotation Yrotation Zrotation
							JOINT LeftShoulder
							{
								OFFSET 6.292450 5.785301 -0.669000
								CHANNELS 3 Xrotation Yrotation Zrotation
								JOINT LeftShoulder_split
								{
									OFFSET 6.292450 5.785301 -0.669000
									CHANNELS 3 Xrotation Yrotation Zrotation
									JOINT LeftArm
									{
										OFFSET 13.907140 -6.093903 1.965100
										CHANNELS 3 Xrotation Yrotation Zrotation
										JOINT LeftForeArm
										{
											OFFSET 34.140198 0.000000 0.000000
											CHANNELS 3 Xrotation Yrotation Zrotation
											JOINT LeftHand
											{
												OFFSET 40.960209 0.000000 0.000000
												CHANNELS 3 Xrotation Yrotation Zrotation
												End Site
												{
													OFFSET 0 0 0
												}
											}
										}
									}
								}
							}
						}
						JOINT RightShoulder_virtual
						{
							OFFSET 0.000000 0.000000 0.000000
							CHANNELS 3 Xrotation Yrotation Zrotation
							JOINT RightShoulder
							{
								OFFSET -6.292450 5.785301 -0.669000
								CHANNELS 3 Xrotation Yrotation Zrotation
								JOINT RightShoulder_split
								{
									OFFSET -6.292450 5.785301 -0.669000
									CHANNELS 3 Xrotation Yrotation Zrotation
									JOINT RightArm
									{
										OFFSET -13.907140 -6.093903 1.965100
										CHANNELS 3 Xrotation Yrotation Zrotation
										JOINT RightForeArm
										{
											OFFSET -34.140198 0.000000 0.000000
											CHANNELS 3 Xrotation Yrotation Zrotation
											JOINT RightHand
											{
												OFFSET -40.960209 0.000000 0.000000
												CHANNELS 3 Xrotation Yrotation Zrotation
												End Site
												{
													OFFSET 0 0 0
												}
											}
										}
									}
								}
							}
						}
					}
				}
			}
		}
	}
}
MOTION
Frames: 6
Frame Time: 0.03333333
-0.075978 42.801277 -2.235233 0.000000 0.000000 0.000000 70.063049 -1.655293 0.501095 9.329618 12.007381 10.314311 7.224446 14.571220 3.682566 -43.259580 9.080672 -13.913783 -29.957227 -0.279237 -5.317371 0.000000 0.000000 0.000000 71.905595 -7.316455 2.147273 6.555521 -4.288343 -9.746227 9.110107 0.864163 2.795484 -27.467584 -0.174731 16.630715 -45.799967 -1.396886 4.080194 0.000000 0.000000 0.000000 76.077919 -2.602804 -0.426507 -2.633817 2.087262 -0.175730 1.693643 1.254223 0.085893 0.828999 -1.179950 0.864540 0.000000 0.000000 0.000000 1.817637 -0.387329 0.048449 -9.626426 1.197486 2.801733 9.320543 9.259608 -5.525969 0.000000 0.000000 0.000000 2.049483 -0.642888 1.007642 2.718492 2.550088 1.451819 0.423444 1.501024 -3.213112 -43.790788 -57.110797 -48.889350 1.199573 -21.429129 0.025002 0.000000 0.000000 0.000000 1.258049 -0.423426 1.038473 0.235440 4.731490 15.646702 5.328723 9.352178 -2.777014 -56.052248 56.871358 52.382234 -0.650467 20.385642 0.592187 0.000000 0.000000 0.000000 
-0.303356 42.888855 -2.367977 0.000000 0.000000 0.000000 70.005805 -1.471247 0.476306 9.628842 12.660369 10.207133 7.112568 14.683293 3.501471 -43.449869 8.832828 -13.825866 -30.429750 -0.289970 -5.121499 0.000000 0.000000 0.000000 71.957880 -7.537991 2.399419 6.424275 -4.090260 -9.744318 9.129844 0.880841 2.827474 -27.542398 -0.359490 16.725467 -45.213161 -1.376829 4.058069 0.000000 0.000000 0.000000 76.404470 -2.769217 -0.178142 -2.506260 2.058603 -0.217407 1.791956 1.251431 0.065461 0.919240 -1.616424 0.919105 0.000000 0.000000 0.000000 1.813739 -0.376178 0.098307 -9.929966 0.944774 2.779808 9.199192 9.292401 -5.915290 0.000000 0.000000 0.000000 2.120113 -0.610818 1.008740 2.677572 2.671391 1.540973 0.944848 1.720347 -2.773088 -44.240856 -57.182456 -49.337646 1.331963 -20.787706 -0.105425 0.000000 0.000000 0.000000 1.421648 -0.356235 1.088710 0.200928 4.997491 15.522325 5.424121 9.104874 -2.987406 -55.788534 56.090917 51.626904 -0.628844 20.790150 0.785860 0.000000 0.000000 0.000000 
-0.354863 43.056694 -2.477009 0.000000 0.000000 0.000000 69.916671 -1.488080 0.563987 10.091070 13.051846 10.064717 6.740879 14.725896 3.356975 -43.127163 8.411779 -14.044385 -31.071548 -0.352194 -4.705732 0.000000 0.000000 0.000000 72.016729 -7.735782 2.627248 6.273731 -4.225811 -9.593541 8.946142 0.764567 2.793821 -27.480086 -0.666252 16.955535 -45.271914 -1.377415 3.997337 0.000000 0.000000 0.000000 76.588892 -2.914793 0.078591 -2.260823 1.972283 -0.330695 1.927280 1.218408 0.068498 0.988225 -1.984579 0.964153 0.000000 0.000000 0.000000 1.791749 -0.424969 0.201163 -10.052335 0.759785 2.728967 8.943433 9.197691 -6.104175 0.000000 0.000000 0.000000 2.261185 -0.646834 1.018084 2.662670 2.750905 1.962518 1.507102 1.967829 -2.339217 -44.421675 -57.619790 -49.810145 1.434431 -20.576846 -0.257065 0.000000 0.000000 0.000000 1.646178 -0.329208 1.165762 0.045051 5.655731 15.297049 5.571463 8.882961 -3.003115 -53.717163 54.563441 49.062792 -0.617286 22.888454 0.953265 0.000000 0.000000 0.000000 
-0.290689 43.269691 -2.522205 0.000000 0.000000 0.000000 69.775430 -1.623084 0.698159 10.760281 13.129786 9.814242 5.903461 14.840278 3.350742 -42.392583 7.904491 -14.168944 -31.546393 -0.445604 -4.229732 0.000000 0.000000 0.000000 72.069499 -7.846427 2.799068 6.252451 -4.651621 -9.259033 8.598454 0.509708 2.684011 -27.439920 -1.049637 17.199231 -45.697220 -1.393769 3.926837 0.000000 0.000000 0.000000 76.596303 -3.108654 0.385212 -1.932445 1.840039 -0.504096 2.074809 1.141832 0.079165 0.970250 -2.176515 0.981350 0.000000 0.000000 0.000000 1.780632 -0.537153 0.339851 -9.982626 0.671177 2.646839 8.525753 8.965988 -6.069865 0.000000 0.000000 0.000000 2.444207 -0.738710 1.042044 2.662999 2.862873 2.748824 2.074593 2.130223 -1.981463 -44.565690 -58.198608 -50.337955 1.528322 -20.992100 -0.404127 0.000000 0.000000 0.000000 1.908425 -0.347669 1.259475 -0.245438 6.771299 14.996785 5.630519 8.750331 -2.895628 -50.425521 52.513479 45.380392 -0.597839 26.182048 1.081905 0.000000 0.000000 0.000000 
-0.218302 43.493900 -2.466129 0.000000 0.000000 0.000000 69.639379 -1.782999 0.844927 11.764370 12.992287 9.440362 4.324576 15.090441 3.525669 -41.579306 7.350128 -13.968317 -31.872849 -0.529072 -3.798220 0.000000 0.000000 0.000000 72.082839 -7.898674 2.925254 6.393591 -5.255035 -8.757768 8.268862 0.088691 2.497029 -27.627294 -1.466080 17.201681 -45.808224 -1.400255 3.887057 0.000000 0.000000 0.000000 76.413943 -3.339474 0.679667 -1.554380 1.694433 -0.723022 2.212634 1.017793 0.088546 1.000002 -2.390098 0.934149 0.000000 0.000000 0.000000 1.812324 -0.695218 0.493333 -9.650434 0.709597 2.533944 7.999030 8.681313 -5.836326 0.000000 0.000000 0.000000 2.662385 -0.872461 1.069387 2.659418 3.051806 3.837535 2.457927 2.158408 -1.757175 -44.714414 -58.598385 -50.779383 1.652687 -21.936852 -0.515502 0.000000 0.000000 0.000000 2.176956 -0.418926 1.362277 -0.677856 8.389134 14.598891 5.605973 8.569948 -2.813856 -46.574589 50.175130 41.234054 -0.586161 30.098431 1.164077 0.000000 0.000000 0.000000 
-0.183286 43.766762 -2.306221 0.000000 0.000000 0.000000 69.458775 -2.016471 1.024269 12.980892 12.681033 9.037952 2.141248 15.227347 3.908641 -40.569121 6.829821 -13.808075 -32.213962 -0.560866 -3.415482 0.000000 0.000000 0.000000 72.026790 -7.945901 3.013682 6.578457 -5.962382 -8.122361 8.106652 -0.512812 2.263255 -28.007290 -1.940272 16.942750 -45.402552 -1.383805 3.882533 0.000000 0.000000 0.000000 76.083786 -3.571988 0.895438 -1.165225 1.576284 -0.932531 2.336380 0.860700 0.091602 1.065205 -2.510693 0.784967 0.000000 0.000000 0.000000 1.905758 -0.864652 0.635196 -9.046581 0.816697 2.398963 7.462805 8.315708 -5.432484 0.000000 0.000000 0.000000 2.910503 -1.019028 1.084586 2.641059 3.272283 5.147862 2.629798 2.042207 -1.598697 -44.673983 -58.609327 -50.899161 1.832665 -23.292779 -0.588711 0.000000 0.000000 0.000000 2.462797 -0.512044 1.461191 -1.215016 10.537679 14.158673 5.330497 8.263747 -2.819474 -42.631145 47.697861 37.113523 -0.578102 34.051048 1.213891 0.000000 0.000000 0.000000 
